General
Complete name                    : Welcome.2009.avi
Format                           : AVI
File size                        : 1.37 GiB
Duration                         : 1h 44mn
Overall bit rate                 : 1 873 Kbps

Video

Format                           : MPEG-4 Visual
Codec ID/Hint                    : XviD
Duration                         : 1h 44mn
Bit rate                         : 1 414 Kbps
Width                            : 720 pixels
Height                           : 432 pixels
Display aspect ratio             : 2.35:1
Stream size                      : 1.03 GiB (75%)
Writing library                  : XviD 1.1.2 (UTC 2006-11-01)

Audio

Format                           : AC-3
Bit rate                         : 448 Kbps
Channel(s)                       : 6 channels
Channel positions                : Front: L C R, Side: L R, LFE
Sampling rate                    : 48.0 KHz
Stream size                      : 335 MiB (24%)